<?xml version="1.0" encoding="utf-8"?>
<!-- Generator: Adobe Illustrator 23.0.5, SVG Export Plug-In . SVG Version: 6.00 Build 0)  -->
<svg version="1.1" id="Layer_1" xmlns="http://www.w3.org/2000/svg" xmlns:xlink="http://www.w3.org/1999/xlink" x="0px" y="0px"
	 viewBox="0 0 609 119.9" style="enable-background:new 0 0 609 119.9;" xml:space="preserve">
<style type="text/css">
	.st0{fill:#ffffff;}
	.st1{enable-background:new    ;}
</style>
<title>logo</title>
<polygon class="st0" points="72.2,19.2 46.2,19.2 26,19.2 26,38.5 26,115.5 46.2,115.5 46.2,38.5 72.2,38.5 "/>
<path class="st0" d="M72.2,43.3v24.1H8.7v19.3h64.5c10.6,0,19.3-8.6,19.3-19.2l0,0l0,0V43.3H72.2z"/>
<rect x="72.2" y="0" class="st0" width="20.2" height="20.2"/>
<rect y="101.1" class="st0" width="14.4" height="14.4"/>
<g class="st1">
	<path class="st0" d="M143.8,27.4c7.4,0,13.7,2.4,18.7,7.3c5.1,4.8,7.6,11,7.6,18.5c0,7.5-2.5,13.7-7.6,18.5
		c-5.1,4.8-11.3,7.3-18.7,7.3H134v22.1h-18.8V27.4H143.8z M143.8,61.1c2.1,0,3.9-0.7,5.3-2.2c1.4-1.5,2.2-3.4,2.2-5.7
		s-0.7-4.2-2.2-5.6c-1.4-1.4-3.2-2.2-5.3-2.2H134v15.7H143.8z"/>
	<path class="st0" d="M196.4,83.4h28.5v17.7h-47.4V27.4h46.8V45h-28v10.2h25.4v17.4h-25.4V83.4z"/>
	<path class="st0" d="M272.3,101.1l-12.8-23.8h-6.7v23.8h-18.8V27.4h29.5c7.5,0,13.8,2.4,18.9,7.2c5.1,4.8,7.6,10.9,7.6,18.3
		c0,4.4-1.1,8.5-3.4,12.2c-2.2,3.7-5.3,6.6-9.2,8.8l15.2,27.3H272.3z M252.7,44.8v16.5h10.4c2.3,0.1,4.2-0.7,5.7-2.2
		c1.5-1.5,2.2-3.5,2.2-6c0-2.5-0.7-4.5-2.2-6c-1.5-1.5-3.4-2.3-5.7-2.3H252.7z"/>
	<path class="st0" d="M348,95.6c-5.4,4.7-12.4,7.1-21,7.1c-8.6,0-15.6-2.4-21-7.1c-5.4-4.7-8.2-10.9-8.2-18.7V27.4h18.8v47.7
		c0,6.2,3.4,9.3,10.3,9.3c6.9,0,10.3-3.1,10.3-9.3V27.4h18.8v49.5C356.2,84.7,353.5,90.9,348,95.6z"/>
	<path class="st0" d="M389.1,82.9H416v18.2h-51.3V86.6l26-41h-25.5V27.4h49.9v14.5L389.1,82.9z"/>
	<path class="st0" d="M484.7,91.6c-7.5,7.4-16.6,11.1-27.4,11.1c-10.8,0-20-3.7-27.4-11.1c-7.5-7.4-11.2-16.5-11.2-27.3
		c0-10.8,3.7-19.9,11.2-27.3c7.5-7.4,16.6-11.1,27.4-11.1c10.8,0,20,3.7,27.4,11.1c7.5,7.4,11.2,16.5,11.2,27.3
		C495.9,75,492.2,84.1,484.7,91.6z M443,78.6c3.8,3.8,8.5,5.6,14.2,5.6c5.7,0,10.4-1.9,14.2-5.6c3.8-3.8,5.7-8.5,5.7-14.4
		c0-5.8-1.9-10.6-5.7-14.4c-3.8-3.8-8.5-5.6-14.2-5.6c-5.7,0-10.4,1.9-14.2,5.6c-3.8,3.8-5.7,8.5-5.7,14.4
		C437.4,70.1,439.3,74.8,443,78.6z"/>
	<path class="st0" d="M543.1,101.1l-12.8-23.8h-6.7v23.8h-18.8V27.4h29.5c7.5,0,13.8,2.4,18.9,7.2c5.1,4.8,7.6,10.9,7.6,18.3
		c0,4.4-1.1,8.5-3.4,12.2c-2.2,3.7-5.3,6.6-9.2,8.8l15.2,27.3H543.1z M523.5,44.8v16.5h10.4c2.3,0.1,4.2-0.7,5.7-2.2
		c1.5-1.5,2.2-3.5,2.2-6c0-2.5-0.7-4.5-2.2-6c-1.5-1.5-3.4-2.3-5.7-2.3H523.5z"/>
</g>
</svg>
